# xmcd CD database file
#
# Track frame offsets:
#	150
#	9711
#	31518
#	48112
#	62363
#	74079
#	94352
#	109297
#	121442
#	144368
#	163667
#	185375
#	198528
#
# Disc length: 2785 seconds
#
# Revision: 4
# Processed by: cddbd v1.5.2PL0 Copyright (c) Steve Scherf et al.
# Submitted via: CDex 1.51
#
DISCID=b30adf0d
DTITLE=Lubos Malina - Piece of Cake
DYEAR=1998
DGENRE=Jazz
TTITLE0=The Day the Banjo Players Ruled the World
TTITLE1=The Tree of Leaf and Fire
TTITLE2=Remembering
TTITLE3=Kdo To Obchazi Muj Dum
TTITLE4=Gejza and Berta
TTITLE5=Rouse Up, Roberto
TTITLE6=Rocky Road Blues
TTITLE7=Baflo Breakdown
TTITLE8=Rain and Snow
TTITLE9=In the Not So High Mountains
TTITLE10=Demoni
TTITLE11=Piece of Cake
TTITLE12=Cibola
EXTD=YEAR: 1998
EXTT0=
EXTT1=
EXTT2=
EXTT3=
EXTT4=
EXTT5=
EXTT6=
EXTT7=
EXTT8=
EXTT9=
EXTT10=
EXTT11=
EXTT12=
PLAYORDER=
